<svg xmlns="http://www.w3.org/2000/svg" viewBox="0 0 30 30" role="img" aria-label="Lalafo DX Assist logo">
  <rect width="30" height="30" rx="6" fill="#22c55e" />

  <g fill="#ffffff" transform="translate(2 0)">
    <!-- "L" from original lalafo wordmark -->
    <path d="M0.372773198,23.2608477 C0.402696733,23.4140616 0.461947037,23.6142179 0.536883753,23.8325201 C1.44064271,26.0079681 3.06597659,27.4018832 4.72779843,28.2947368 L7.07368421,26.0765278 C7.07368421,26.0765278 5.43939884,24.7165375 4.90256551,23.4846725 C4.43896385,22.4206959 4.0936923,21.0834273 4.08985595,19.2087266 C4.08968544,19.0817847 4.11994999,17.7849892 4.15831349,16.0260274 C4.1986378,14.17965 4.35729221,10.5315498 4.45038765,7.14301379 C4.49412205,5.55036241 4.51517935,3.9520306 4.46402801,2.65263158 C3.08413532,3.07424593 1.73476292,3.68915279 0.555895002,4.31589389 C0.55734429,4.518496 0.55887883,4.72046694 0.559390343,4.92598816 L0.4757579,8.09338177 L0.457172912,8.0928295 C0.457172912,8.0928295 -0.0116291343,18.8956717 0.00022092652,19.4145634 C0.0304002181,20.7295047 0.154783231,22.1440114 0.372773198,23.2608477"/>
    <!-- "A" from original lalafo wordmark -->
    <path d="M16.3482859,21.7221462 C13.8780476,21.7221462 11.8684093,19.7124526 11.8684093,17.2421462 C11.8684093,14.7719217 13.8780476,12.7621462 16.3482859,12.7621462 C18.8185243,12.7621462 21.1267664,14.2554522 21.1267664,17.2421462 C21.1267664,20.2286764 18.8185243,21.7221462 16.3482859,21.7221462 M25.0465356,21.6743978 C24.7626735,20.6484204 24.7340089,18.5097323 24.7340089,17.3897323 L24.7340089,14.9713513 L24.7340089,10.0358983 L24.7340089,9.54408113 C23.7180515,9.87954877 22.7201938,10.3905309 21.7992393,10.9038881 C20.3556052,9.62147784 18.4610351,8.84210526 16.3576224,8.84210526 C11.7260688,8.84210526 7.95789474,12.6103831 7.95789474,17.2421462 C7.95789474,21.8739093 11.7260688,25.6421053 16.3576224,25.6421053 C18.1580906,25.6421053 19.8063084,25.0715809 21.1492067,24.1032621 C21.2248814,24.0487159 21.5600122,23.7477287 21.560176,23.7475649 L21.5602579,23.747483 C21.9557483,24.1215261 22.6993095,24.8058113 23.5137953,25.1794449 L25.6421053,22.9811327 C25.6421053,22.9811327 25.2940344,22.5696607 25.0465356,21.6743978"/>
  </g>
</svg>

