<svg width="50" height="50" viewBox="0 0 50 50" fill="none" xmlns="http://www.w3.org/2000/svg">
<g clip-path="url(#clip0_25_8)">
<path d="M8.33333 8.33333H20.8333V20.8333H8.33333V8.33333ZM41.6667 8.33333V20.8333H29.1667V8.33333H41.6667ZM29.1667 31.25H33.3333V27.0833H29.1667V22.9167H33.3333V27.0833H37.5V22.9167H41.6667V27.0833H37.5V31.25H41.6667V37.5H37.5V41.6667H33.3333V37.5H27.0833V41.6667H22.9167V33.3333H29.1667V31.25ZM33.3333 31.25V37.5H37.5V31.25H33.3333ZM8.33333 41.6667V29.1667H20.8333V41.6667H8.33333ZM12.5 12.5V16.6667H16.6667V12.5H12.5ZM33.3333 12.5V16.6667H37.5V12.5H33.3333ZM12.5 33.3333V37.5H16.6667V33.3333H12.5ZM8.33333 22.9167H12.5V27.0833H8.33333V22.9167ZM18.75 22.9167H27.0833V31.25H22.9167V27.0833H18.75V22.9167ZM22.9167 12.5H27.0833V20.8333H22.9167V12.5ZM4.16667 4.16667V12.5H0V4.16667C0 3.0616 0.438987 2.00179 1.22039 1.22039C2.00179 0.438987 3.0616 0 4.16667 0L12.5 0V4.16667H4.16667ZM45.8333 0C46.9384 0 47.9982 0.438987 48.7796 1.22039C49.561 2.00179 50 3.0616 50 4.16667V12.5H45.8333V4.16667H37.5V0H45.8333ZM4.16667 37.5V45.8333H12.5V50H4.16667C3.0616 50 2.00179 49.561 1.22039 48.7796C0.438987 47.9982 0 46.9384 0 45.8333V37.5H4.16667ZM45.8333 45.8333V37.5H50V45.8333C50 46.9384 49.561 47.9982 48.7796 48.7796C47.9982 49.561 46.9384 50 45.8333 50H37.5V45.8333H45.8333Z" fill="black"/>
</g>
<defs>
<clipPath id="clip0_25_8">
<rect width="50" height="50" fill="white"/>
</clipPath>
</defs>
</svg>
